# xmcd
#
# Track frame offsets:
#	150
#	15195
#	32439
#	47128
#	63325
#	79842
#	94063
#	110297
#	125112
#	141053
#	156117
#	174612
#	189392
#
# Disc length: 2781 seconds
#
# Revision: 1
# Processed by: cddbd v1.5.2PL0 Copyright (c) Steve Scherf et al.
# Submitted via: audiograbber 1.83.01
#
DISCID=a00adb0d
DTITLE=Various Artist - CDX Volume 566 (March 18, 2013)
DYEAR=2013
DGENRE=Country
TTITLE0=Rachel Holder - Five Days
TTITLE1=Kenny Chesney - Pirate Flag
TTITLE2=Tate Stevens - Power Of A Love Song
TTITLE3=Kinky Friedman - Sold American 
TTITLE4=Wayne Warner - A Flight Called You
TTITLE5=Erica Nicole - Better Beer
TTITLE6=Rosehill - Did You Ever Turn Around
TTITLE7=Petrella - I Like A Man To Drive
TTITLE8=Philip Claypool - I'm Gonna Lie 
TTITLE9=Ben Wasson - Just Another Misty Night
TTITLE10=Verlan Brock - Let Our Children Pray
TTITLE11=Casey Donahew Band - Whiskey Baby 
TTITLE12=Jerry D - You Found The Key
EXTD=
EXTT0=
EXTT1=
EXTT2=
EXTT3=
EXTT4=
EXTT5=
EXTT6=
EXTT7=
EXTT8=
EXTT9=
EXTT10=
EXTT11=
EXTT12=
PLAYORDER=
